<svg xmlns="http://www.w3.org/2000/svg" xmlns:xlink="http://www.w3.org/1999/xlink" width="500" zoomAndPan="magnify" viewBox="0 0 375 374.999991" height="500" preserveAspectRatio="xMidYMid meet" version="1.0"><defs><clipPath id="85f96ccef9"><path d="M 34.652344 56.433594 L 340.652344 56.433594 L 340.652344 318.933594 L 34.652344 318.933594 Z M 34.652344 56.433594 " clip-rule="nonzero"/></clipPath><clipPath id="e201443975"><path d="M 200.566406 56.433594 L 340.066406 56.433594 L 340.066406 318.933594 L 200.566406 318.933594 Z M 200.566406 56.433594 " clip-rule="nonzero"/></clipPath></defs><g clip-path="url(#85f96ccef9)"><path fill="#8c52ff" d="M 58.84375 56.433594 L 97.738281 123.539062 L 117.15625 156.570312 L 136.570312 190.394531 L 175.769531 257.316406 L 194.945312 290.59375 L 199.460938 298.042969 L 187.496094 318.558594 L 182.976562 311.109375 L 144.082031 244.25 L 105.1875 177.148438 L 34.847656 56.433594 Z M 304.179688 77.195312 L 273.527344 77.195312 L 215.460938 177.085938 L 203.492188 156.570312 L 261.804688 56.433594 L 340.140625 56.433594 L 214.664062 271.972656 L 89.191406 56.433594 L 113.1875 56.433594 L 214.664062 230.9375 Z M 304.179688 77.195312 " fill-opacity="1" fill-rule="nonzero"/></g><g clip-path="url(#e201443975)"><path fill="#46e9ff" d="M 58.84375 56.433594 L 97.738281 123.539062 L 117.15625 156.570312 L 136.570312 190.394531 L 175.769531 257.316406 L 194.945312 290.59375 L 199.460938 298.042969 L 187.496094 318.558594 L 182.976562 311.109375 L 144.082031 244.25 L 105.1875 177.148438 L 34.847656 56.433594 Z M 304.179688 77.195312 L 273.527344 77.195312 L 215.460938 177.085938 L 203.492188 156.570312 L 261.804688 56.433594 L 340.140625 56.433594 L 214.664062 271.972656 L 89.191406 56.433594 L 113.1875 56.433594 L 214.664062 230.9375 Z M 304.179688 77.195312 " fill-opacity="1" fill-rule="nonzero"/></g></svg>